<?xml version="1.0" standalone="no"?>
<!DOCTYPE svg PUBLIC "-//W3C//DTD SVG 20010904//EN"
 "http://www.w3.org/TR/2001/REC-SVG-20010904/DTD/svg10.dtd">
<svg version="1.0" xmlns="http://www.w3.org/2000/svg"
 width="640.000000pt" height="640.000000pt" viewBox="0 0 640.000000 640.000000"
 preserveAspectRatio="xMidYMid meet">
<metadata>
Created by potrace 1.11, written by Peter Selinger 2001-2013
</metadata>
<g transform="translate(0.000000,640.000000) scale(0.100000,-0.100000)"
fill="#000000" stroke="none">
<path d="M4159 6166 c-2 -2 -26 -7 -54 -10 -348 -46 -707 -208 -910 -411 -130
-129 -220 -272 -275 -438 l-23 -67 -61 66 c-34 37 -60 72 -58 78 2 6 0 8 -4 4
-9 -10 -86 51 -79 63 4 5 -1 6 -9 3 -9 -3 -16 -1 -16 5 0 6 -7 11 -16 11 -10
0 -14 6 -11 14 4 10 1 13 -8 10 -8 -3 -28 4 -44 15 -77 55 -255 123 -394 151
-100 20 -119 22 -267 24 -520 8 -1059 -228 -1419 -620 -112 -123 -195 -246
-276 -409 -119 -239 -166 -442 -168 -720 -1 -143 5 -253 17 -310 2 -11 7 -40
11 -65 10 -68 53 -248 71 -299 9 -25 17 -53 19 -61 2 -8 14 -41 29 -73 14 -31
26 -61 27 -65 1 -4 15 -36 31 -70 15 -35 25 -69 21 -74 -4 -7 -1 -8 7 -3 10 6
12 4 7 -9 -4 -9 -3 -15 2 -12 12 8 35 -40 26 -56 -5 -7 -5 -10 0 -6 5 5 15 -2
23 -13 12 -18 13 -23 1 -31 -11 -7 -10 -8 5 -6 10 2 21 -3 24 -11 3 -9 0 -11
-8 -6 -9 5 -11 4 -6 -4 4 -6 11 -9 16 -6 10 6 51 -70 43 -79 -4 -3 1 -6 11 -6
9 0 14 -4 11 -10 -3 -5 0 -10 7 -10 9 0 9 -3 -2 -10 -13 -8 -13 -10 1 -10 18
0 113 -135 115 -163 1 -10 7 -24 14 -30 10 -10 10 -7 1 11 -7 13 -8 22 -2 22
5 0 13 -9 16 -20 3 -11 11 -20 16 -20 5 0 8 -3 8 -7 -3 -18 2 -36 7 -30 8 8
74 -73 74 -90 0 -6 5 -15 12 -19 7 -4 8 -3 4 4 -4 7 -5 12 -2 12 3 0 10 -10
17 -21 9 -17 8 -20 -2 -14 -8 6 -10 4 -5 -4 5 -7 14 -10 22 -7 8 3 14 -1 14
-9 0 -8 5 -15 10 -15 6 0 10 -7 10 -16 0 -9 5 -13 13 -9 6 4 1 -3 -12 -14 -13
-12 -19 -21 -14 -21 5 0 15 6 22 12 10 11 16 9 30 -9 10 -12 20 -21 22 -20 3
1 -3 -4 -11 -12 -13 -12 -13 -13 3 -8 22 8 49 -2 41 -15 -4 -6 -10 -5 -16 3
-8 12 -9 12 -6 0 2 -8 12 -15 22 -17 10 -1 46 -30 80 -64 35 -34 67 -65 73
-68 5 -4 12 -15 16 -25 4 -10 11 -15 17 -12 5 3 15 -5 21 -19 8 -16 17 -23 28
-19 9 3 12 1 6 -4 -6 -4 -19 -21 -28 -38 -18 -30 -18 -30 1 -8 11 12 23 19 27
15 5 -4 5 -1 0 7 -6 10 -4 12 6 6 41 -25 88 -69 82 -78 -4 -6 -14 -1 -25 12
-10 13 -18 19 -18 13 0 -6 7 -17 15 -25 8 -8 11 -18 7 -22 -4 -5 -2 -5 5 -1 6
3 18 -3 26 -14 8 -12 18 -20 23 -19 23 5 44 -14 39 -35 -5 -17 -4 -18 4 -6 6
8 11 11 11 7 0 -4 8 -3 18 2 13 7 24 2 46 -20 16 -16 34 -29 39 -29 5 0 6 -7
3 -15 -3 -9 1 -18 9 -21 8 -4 13 -10 10 -15 -3 -4 -13 -5 -22 -2 -15 6 -16 5
-3 -9 13 -14 16 -14 27 1 7 10 8 20 2 26 -5 5 -9 13 -9 18 0 5 8 1 17 -8 14
-14 14 -20 4 -37 -7 -11 -8 -17 -3 -14 5 3 16 -1 23 -10 11 -13 9 -15 -17 -9
-26 5 -27 5 -6 -5 14 -6 30 -6 39 -1 13 7 13 9 -2 14 -9 4 -13 12 -9 18 5 8 3
9 -6 4 -9 -5 -11 -4 -6 4 4 6 12 9 17 5 5 -3 7 -10 3 -15 -3 -6 0 -9 7 -8 19
3 50 -11 44 -21 -3 -4 3 -14 12 -21 15 -12 16 -12 10 5 -6 16 -5 17 8 6 17
-14 21 -35 5 -25 -5 3 -10 1 -10 -4 0 -6 5 -11 11 -11 5 0 7 -4 4 -10 -3 -5 0
-7 9 -4 8 3 12 13 9 22 -4 14 -3 15 6 2 7 -11 5 -20 -7 -34 -9 -11 -12 -16 -5
-13 6 4 13 3 15 -3 1 -5 13 -7 25 -4 13 4 20 11 17 18 -3 6 4 0 15 -13 12 -13
21 -17 21 -10 0 7 2 10 5 7 3 -3 1 -17 -4 -31 -7 -18 -7 -28 1 -33 7 -4 8 -3
4 4 -4 7 -2 12 4 12 6 0 9 4 5 9 -10 18 13 21 26 4 8 -9 9 -14 3 -10 -7 4 -15
0 -18 -9 -3 -8 -2 -12 4 -9 6 3 10 1 10 -4 0 -15 37 -14 42 1 3 9 6 9 12 0 4
-7 2 -12 -4 -12 -6 0 -8 -5 -5 -10 5 -8 12 -7 23 2 12 10 14 10 8 1 -4 -8 -2
-13 4 -13 6 0 8 -5 5 -10 -3 -5 -1 -10 4 -10 6 0 11 5 11 10 0 6 4 10 10 10 5
0 9 -5 7 -11 -1 -6 6 -13 16 -14 11 -2 22 -7 25 -11 4 -4 0 -5 -8 -2 -9 3 -24
0 -35 -8 -14 -10 -15 -14 -4 -14 12 0 12 -2 -1 -10 -11 -8 -9 -9 10 -6 14 3
29 5 33 5 5 1 5 5 2 11 -4 6 1 7 11 3 13 -5 15 -3 9 7 -5 8 -4 11 3 6 6 -4 9
-13 6 -21 -4 -8 -10 -13 -14 -10 -5 3 -12 0 -16 -7 -4 -7 -4 -10 1 -6 5 5 14
-1 22 -12 14 -20 40 -29 28 -10 -3 6 -2 10 4 10 6 0 8 8 5 18 -5 14 -4 14 4 2
6 -8 8 -18 5 -22 -2 -5 0 -15 7 -23 7 -9 8 -15 0 -20 -5 -3 -10 -1 -10 4 0 6
-5 11 -11 11 -8 0 -8 -5 1 -15 7 -8 17 -12 24 -8 6 4 16 8 21 9 6 1 19 5 30 9
17 7 17 5 -2 -9 -24 -18 -30 -36 -12 -36 5 0 8 4 5 9 -7 11 14 20 32 14 6 -3
12 -11 12 -19 0 -9 5 -12 10 -9 6 4 8 10 5 15 -3 4 2 11 10 14 13 4 14 2 5
-14 -6 -11 -8 -26 -4 -32 5 -7 2 -9 -9 -5 -9 3 -19 2 -21 -2 -3 -5 5 -8 17 -8
49 -1 53 -2 37 -14 -13 -9 -13 -10 0 -6 9 2 14 13 12 25 -2 12 1 22 7 22 6 0
8 -6 5 -14 -6 -15 11 -16 34 -3 7 5 12 4 12 -2 0 -6 -5 -11 -11 -11 -5 0 -7
-5 -4 -10 5 -8 11 -7 21 1 14 11 20 2 15 -25 -1 -5 5 -6 14 -2 11 4 14 2 9 -6
-5 -8 -2 -9 10 -5 11 5 15 3 10 -4 -4 -7 -1 -10 7 -7 8 3 13 11 11 17 -1 7 2
10 8 6 8 -5 7 -12 -2 -23 -11 -13 -10 -15 5 -9 10 4 16 3 13 -2 -3 -5 2 -15
11 -22 14 -12 15 -11 9 11 -6 21 -4 19 13 -8 13 -19 26 -30 33 -26 7 4 8 3 4
-5 -6 -8 -12 -9 -20 -2 -7 6 -17 7 -21 3 -5 -4 -5 -1 0 7 5 9 4 12 -3 7 -17
-10 -15 -29 2 -23 7 3 18 1 24 -5 8 -8 16 -8 27 2 9 8 15 8 15 2 0 -6 -4 -14
-10 -17 -6 -3 -10 -12 -10 -18 0 -9 2 -9 8 -1 9 14 52 28 52 17 0 -5 -8 -20
-17 -33 -16 -24 -16 -25 3 -9 32 27 41 29 53 15 9 -11 9 -16 0 -22 -7 -4 -9
-3 -6 3 3 5 0 10 -8 10 -19 0 -19 -13 -2 -20 17 -6 32 3 40 23 4 13 6 12 6 -1
1 -9 -5 -22 -13 -28 -15 -12 -18 -54 -4 -45 4 3 5 11 2 19 -4 9 4 19 20 26 14
7 26 17 26 23 0 6 4 5 9 -3 11 -16 -8 -53 -22 -44 -5 3 -3 10 4 15 12 8 12 9
0 6 -8 -2 -15 -14 -16 -26 -1 -17 2 -19 16 -11 23 12 32 11 23 -2 -4 -8 0 -8
15 0 12 7 27 9 34 5 7 -5 7 -1 -2 9 -8 10 -11 20 -7 24 3 3 6 1 6 -6 0 -7 5
-9 10 -6 6 4 10 3 9 -2 -3 -18 1 -34 9 -29 4 2 9 -7 10 -20 1 -15 -2 -23 -8
-19 -6 4 -8 10 -5 15 3 5 -4 14 -15 20 -19 10 -21 10 -11 -8 6 -11 7 -23 3
-27 -4 -5 -2 -5 5 -1 6 3 15 2 18 -4 11 -17 34 8 28 29 -3 10 0 22 5 25 6 4 8
-3 5 -16 -4 -19 -3 -21 7 -8 10 13 11 13 6 -2 -3 -10 -9 -26 -13 -35 -5 -12
-2 -15 10 -10 9 3 19 1 23 -5 5 -7 16 -1 31 18 15 18 21 22 17 10 -6 -15 -4
-17 7 -11 11 7 12 6 2 -7 -7 -8 -9 -19 -5 -24 4 -4 -1 -2 -10 5 -12 9 -18 10
-18 2 0 -6 5 -11 10 -11 6 0 10 -8 10 -17 1 -13 4 -11 13 7 7 14 19 26 27 28
13 2 13 1 0 -10 -8 -7 -16 -20 -18 -28 -2 -8 0 -12 4 -8 4 5 14 -1 21 -12 8
-11 20 -20 26 -19 25 3 38 -1 32 -11 -3 -5 -2 -10 2 -10 12 0 35 39 29 49 -3
4 1 8 9 8 10 0 11 -5 5 -17 -6 -11 -5 -22 3 -30 10 -10 9 -12 -5 -7 -12 4 -15
2 -11 -9 4 -11 9 -12 16 -5 6 6 15 11 21 11 6 0 5 -5 -2 -12 -7 -7 -12 -17
-12 -23 0 -5 5 -2 11 9 11 18 12 17 33 -6 11 -13 20 -22 19 -19 -2 2 2 10 8
17 7 8 6 14 -2 20 -7 4 -9 3 -5 -4 3 -6 2 -13 -3 -16 -5 -3 -11 1 -15 9 -3 8
-1 15 4 15 5 0 7 8 3 18 -4 12 1 9 16 -7 13 -15 19 -32 15 -43 -8 -27 3 -39
31 -28 30 11 51 -9 32 -30 -10 -12 -9 -12 6 -1 14 11 17 11 17 1 0 -8 3 -10 6
-7 4 4 1 13 -6 22 -9 11 -9 15 -1 15 7 0 10 4 7 9 -3 5 2 15 11 22 15 12 16
12 8 -1 -15 -24 -14 -40 1 -40 7 0 12 6 10 13 -1 6 -1 8 2 4 2 -4 11 -2 20 5
12 9 11 5 -2 -10 -14 -16 -16 -26 -9 -33 8 -8 13 -7 18 2 6 8 4 10 -6 4 -12
-8 -12 -6 0 8 7 9 19 17 25 16 6 0 6 -3 -2 -6 -10 -4 -10 -8 -1 -19 15 -18 30
-18 23 0 -3 7 3 17 13 20 14 6 15 5 6 -5 -10 -10 -9 -17 5 -33 9 -11 11 -16 4
-12 -7 4 -12 4 -11 -1 4 -21 -2 -25 -14 -9 -12 16 -14 16 -14 2 0 -9 3 -16 6
-17 36 -5 62 -6 48 -2 -9 2 -15 9 -12 13 3 5 17 4 31 -2 18 -9 21 -14 12 -20
-9 -6 -6 -7 8 -3 13 3 26 -1 34 -10 7 -8 16 -12 21 -9 8 5 13 -10 10 -29 -1
-5 3 -6 8 -3 5 3 12 -1 15 -10 5 -12 10 -14 20 -5 7 6 17 7 21 3 5 -4 5 -1 1
5 -4 7 -2 13 4 13 8 0 8 6 0 21 -7 11 -9 23 -6 27 3 3 6 0 6 -6 0 -20 41 -50
63 -46 21 4 21 4 2 -5 -11 -4 -23 -7 -27 -4 -5 2 -8 -1 -8 -6 0 -6 5 -11 11
-11 8 0 8 -4 0 -14 -9 -11 -9 -16 0 -22 8 -4 9 -3 5 4 -4 7 -2 12 4 12 7 0 10
7 6 15 -6 17 9 21 19 5 4 -6 10 -8 15 -5 4 3 11 -2 14 -11 3 -8 10 -12 16 -9
5 3 10 1 10 -5 0 -6 4 -8 10 -5 13 8 13 -8 -1 -22 -8 -8 -7 -13 3 -18 7 -5 10
-5 6 0 -11 12 11 35 27 29 7 -3 16 -1 20 5 3 6 0 9 -8 5 -8 -3 -21 2 -30 10
-8 8 -17 13 -19 11 -3 -3 -5 2 -5 10 0 8 6 16 12 19 7 2 12 -1 11 -7 0 -7 4
-12 9 -12 6 0 9 3 8 7 -2 5 2 8 7 8 14 0 13 -13 -2 -29 -11 -10 -9 -12 6 -9
12 2 20 -4 22 -15 1 -11 5 -22 9 -25 9 -9 36 28 29 39 -9 16 3 10 17 -8 10
-11 10 -14 2 -9 -12 6 -15 0 -12 -20 0 -4 -5 -11 -13 -16 -8 -5 0 -6 22 -3 28
5 33 4 23 -6 -7 -7 -13 -17 -13 -23 0 -5 6 -1 14 9 8 11 12 23 10 27 -3 4 5 5
16 3 11 -2 20 0 20 6 0 5 4 9 10 9 5 0 9 -6 7 -12 -1 -7 6 -12 16 -10 21 4 22
-7 0 -38 -14 -22 -13 -22 15 4 18 17 32 26 32 22 0 -5 8 -2 18 5 15 12 15 12
5 -1 -13 -17 4 -50 26 -50 7 0 9 -5 5 -12 -4 -7 -3 -8 4 -4 6 4 9 14 6 24 -5
14 -4 15 5 2 6 -8 8 -24 6 -35 -3 -11 -2 -14 1 -7 3 6 11 9 17 5 6 -4 8 0 4
10 -3 9 0 18 9 21 8 3 13 2 9 -3 -11 -19 7 -40 33 -36 15 1 28 3 30 4 1 0 -2
10 -8 20 -7 14 -7 22 0 26 6 4 10 3 9 -2 -4 -22 3 -33 22 -33 11 0 18 -4 15
-9 -4 -5 2 -8 11 -6 10 1 17 8 15 14 -1 6 5 14 13 17 8 4 15 11 15 16 0 7 -5
6 -13 -1 -8 -6 -18 -7 -22 -3 -5 4 -5 1 0 -7 6 -10 4 -12 -5 -6 -9 6 -11 4 -5
-4 6 -10 3 -11 -14 -2 -24 13 -28 23 -6 15 8 -4 15 -1 15 5 0 6 -5 11 -12 11
-6 0 -9 3 -6 6 4 3 15 1 27 -5 13 -7 22 -8 26 -1 3 5 1 10 -4 10 -6 0 -11 5
-11 11 0 8 4 8 14 0 12 -10 17 -8 25 7 11 21 48 20 64 -2 5 -7 7 -6 6 4 -1 8
1 23 6 33 6 14 10 15 21 6 8 -6 11 -16 7 -22 -3 -6 -1 -7 6 -3 9 6 9 11 1 21
-8 10 -8 15 0 20 7 4 10 20 8 35 -3 21 0 27 11 25 22 -3 43 27 28 38 -8 6 -5
7 7 3 13 -5 17 -2 13 9 -4 8 -1 17 5 21 6 4 8 3 4 -4 -3 -6 -2 -14 4 -17 6 -4
1 -14 -12 -26 l-23 -20 25 13 c14 6 32 11 40 10 10 -1 11 0 2 4 -10 5 -10 9
-1 20 6 8 15 11 20 8 5 -3 9 -2 8 3 -3 20 2 34 11 28 6 -4 7 -11 4 -17 -4 -7
-2 -8 5 -4 9 6 9 11 1 21 -8 9 -8 15 0 20 5 3 10 1 10 -4 0 -6 5 -11 12 -11 9
0 9 3 0 12 -15 15 -16 38 -1 38 5 0 8 -3 5 -8 -2 -4 2 -16 10 -27 14 -19 15
-19 10 7 -2 15 0 30 5 33 12 8 12 35 -1 35 -5 0 -7 -8 -4 -17 5 -15 4 -15 -4
-3 -6 8 -9 17 -6 22 5 8 58 3 75 -8 8 -4 9 -3 5 5 -10 15 13 43 27 34 6 -4 0
9 -13 27 -13 18 -19 31 -13 27 16 -10 24 18 10 33 -7 7 0 5 14 -4 14 -9 29
-13 34 -9 4 5 6 2 3 -6 -2 -8 -10 -17 -18 -19 -7 -3 -10 0 -6 7 4 6 2 11 -4
11 -7 0 -9 -7 -6 -16 4 -10 2 -13 -7 -8 -7 5 -6 1 2 -10 14 -17 16 -17 29 1 7
10 17 17 22 16 5 -2 7 4 4 12 -4 8 -1 15 5 15 8 0 8 4 -1 14 -8 9 -17 11 -22
5 -6 -5 -15 -9 -20 -9 -6 0 -3 5 7 11 9 6 14 15 11 21 -5 7 -2 8 7 2 8 -4 25
-7 38 -5 14 2 21 -1 17 -8 -4 -5 -14 -8 -24 -5 -14 5 -14 4 -3 -4 22 -16 43
-3 35 22 -6 19 -5 20 12 6 17 -14 18 -13 7 1 -7 9 -9 20 -5 25 4 4 -1 2 -11
-6 -24 -18 -57 -21 -50 -3 3 7 9 11 13 8 5 -3 11 -1 15 5 4 6 10 8 14 5 5 -2
19 7 31 20 13 14 19 25 13 25 -6 0 -16 -7 -23 -15 -14 -17 -30 -20 -30 -5 0 5
3 9 8 8 13 -4 61 33 58 45 -1 7 -1 9 1 5 6 -9 53 13 53 24 0 5 -4 7 -8 4 -5
-3 -9 1 -9 9 0 10 4 12 12 5 7 -5 15 -6 20 -2 4 4 2 -3 -4 -15 -6 -13 -16 -23
-22 -23 -6 0 -7 -4 -4 -10 4 -6 -1 -7 -12 -3 -15 5 -16 4 -5 -8 11 -12 16 -11
30 9 14 18 20 20 31 10 8 -8 11 -8 8 -2 -4 7 0 15 9 18 8 3 13 10 10 15 -6 9
43 47 56 43 5 -1 7 1 7 6 -4 25 2 42 14 36 9 -6 9 -4 -1 8 -7 8 -9 24 -5 33 5
14 3 16 -8 11 -8 -4 -5 1 7 11 11 10 20 28 19 40 -1 12 2 20 7 17 5 -4 7 -12
4 -20 -8 -20 29 -37 43 -20 6 7 8 16 4 20 -4 4 3 9 16 13 17 4 19 8 9 14 -17
11 -31 11 -24 0 3 -5 -1 -14 -9 -21 -8 -7 -12 -17 -8 -24 3 -6 2 -8 -2 -3 -15
13 -13 46 2 40 8 -3 13 0 11 7 -2 6 8 19 22 28 24 16 24 16 11 -1 -8 -10 -9
-17 -3 -17 18 0 20 24 4 43 -10 11 -11 17 -4 17 7 0 12 -4 12 -8 0 -11 51 -35
58 -27 3 3 1 5 -4 5 -6 0 -19 7 -30 16 -16 13 -16 15 -1 10 21 -7 23 12 2 20
-16 7 -21 26 -6 21 5 -1 17 7 25 18 l16 20 -7 -20 c-6 -18 -5 -18 10 -6 9 7
23 11 30 8 7 -3 21 1 32 9 10 8 14 14 9 14 -6 0 -15 -5 -22 -12 -9 -9 -12 -9
-12 1 0 7 -5 9 -12 5 -10 -6 -10 -5 -1 8 7 8 10 18 6 21 -3 4 -11 -1 -18 -9
-11 -15 -12 -15 -12 -1 0 19 24 31 32 16 4 -5 12 -6 18 -2 7 4 5 -2 -3 -13
-14 -18 -14 -18 3 -5 14 11 20 11 35 0 14 -11 15 -11 5 1 -18 19 -16 30 5 31
13 0 13 2 -4 9 -12 5 -25 14 -30 21 -5 8 -3 10 7 3 21 -13 49 -15 49 -3 0 5
-4 7 -10 4 -14 -9 -12 7 4 28 8 10 13 26 11 35 -1 9 0 11 2 4 4 -11 7 -11 20
0 19 15 23 15 34 -4 7 -10 9 -10 9 0 0 7 4 11 9 8 5 -3 11 1 14 9 4 9 1 12 -8
9 -10 -4 -13 2 -10 23 1 15 -1 37 -7 48 l-9 20 16 -20 c9 -11 23 -19 32 -17 8
2 12 -1 9 -7 -4 -6 2 -8 15 -6 27 5 41 18 14 13 -15 -2 -20 3 -20 20 0 12 -7
27 -15 33 -13 9 -12 10 2 5 10 -3 20 -1 23 4 4 6 1 10 -4 10 -6 0 -11 4 -11
10 0 5 6 7 14 4 8 -3 17 -1 21 5 3 6 11 11 18 11 6 0 2 -7 -9 -15 -10 -8 -15
-15 -10 -15 6 0 1 -7 -10 -15 -10 -8 -14 -15 -8 -15 15 0 36 25 27 33 -3 4 -1
7 4 7 6 0 13 -3 16 -7 2 -5 2 -2 0 6 -2 9 3 11 14 7 15 -5 15 -4 -1 9 -18 14
-15 20 7 16 5 -1 5 4 1 10 -4 7 -2 10 7 7 8 -3 13 -11 11 -17 -1 -7 2 -10 7
-7 14 9 5 41 -10 38 -8 -2 -21 -10 -30 -18 -19 -17 -29 -18 -29 -3 0 5 4 8 9
5 5 -3 14 1 21 9 10 12 10 18 -1 32 -13 15 -12 15 11 3 61 -32 61 -32 48 -11
-6 11 -14 19 -17 19 -19 -2 -31 3 -31 13 0 5 5 7 12 3 18 -12 58 -14 58 -4 0
5 8 7 18 4 16 -5 16 -5 0 6 -21 13 -24 32 -4 24 8 -3 16 -1 20 4 3 5 -5 8 -17
7 -28 -3 -47 4 -47 17 0 7 5 7 13 1 18 -14 67 -1 67 19 0 5 -5 6 -11 2 -7 -4
-10 -1 -7 7 3 8 11 13 17 11 8 -1 7 7 -3 26 -15 28 -14 29 10 26 14 -1 33 -8
42 -16 16 -12 16 -11 2 6 -14 18 -13 18 10 12 21 -6 22 -5 7 4 -9 6 -21 9 -26
5 -5 -3 -13 0 -17 6 -4 8 -3 9 4 5 7 -4 12 -2 12 4 0 6 5 8 10 5 6 -3 10 -2
10 4 0 5 -6 11 -12 14 -7 2 -10 7 -7 11 4 4 13 1 21 -7 8 -9 21 -11 33 -6 19
7 19 8 -1 8 -27 1 -36 11 -23 27 7 8 7 14 -1 19 -5 3 -10 1 -10 -6 0 -7 -3
-10 -6 -6 -3 3 -3 11 1 17 5 8 10 8 21 0 11 -10 13 -6 9 19 -2 17 0 29 5 26 5
-3 6 -13 3 -22 -5 -12 -3 -14 7 -8 15 9 7 -7 -19 -40 -16 -20 -15 -20 5 -2 11
9 24 14 28 10 4 -4 4 1 0 11 -6 17 -5 17 17 6 l24 -12 -23 21 c-12 12 -20 26
-17 32 4 5 1 9 -4 9 -6 0 -11 5 -11 11 0 8 4 9 13 0 8 -6 18 -7 23 -3 4 4 2
-2 -6 -13 -14 -18 -14 -19 2 -7 9 8 22 11 29 7 8 -6 8 -2 0 13 -13 24 -14 35
-3 28 4 -2 14 0 22 6 12 8 12 9 -2 5 -23 -8 -29 14 -10 35 12 14 12 20 2 33
-8 10 -9 15 -1 15 6 0 11 -5 11 -12 0 -6 7 -4 18 5 18 17 26 47 12 47 -4 0 -7
7 -7 16 0 15 2 15 13 0 9 -13 14 -14 20 -5 4 7 2 15 -4 17 -7 2 -12 8 -12 14
0 7 5 6 14 -1 10 -8 16 -9 21 -1 3 5 1 10 -4 10 -6 0 -10 6 -8 13 1 6 -5 11
-13 9 -8 -2 -11 0 -7 4 11 11 38 14 31 3 -3 -5 -1 -9 4 -9 5 0 9 -8 9 -18 0
-40 2 -44 17 -30 11 11 11 15 -3 24 -14 11 -12 14 12 25 15 7 23 15 18 18 -13
8 -18 36 -6 36 6 0 9 -3 8 -7 -1 -3 5 -12 15 -19 9 -7 14 -9 10 -5 -4 5 0 15
10 23 16 12 15 13 -3 6 -17 -6 -18 -4 -8 9 7 8 10 18 6 21 -9 10 11 9 23 0 5
-5 3 -1 -6 7 -8 8 -22 24 -30 35 -12 16 -9 15 20 -5 27 -19 32 -20 20 -5 -14
17 -13 18 3 12 24 -9 21 0 -4 14 -17 9 -20 8 -14 -3 7 -11 6 -11 -6 0 -12 11
-11 15 6 25 25 14 36 15 57 5 10 -5 19 -4 23 2 4 6 3 10 -2 9 -25 -4 -35 1
-24 14 6 8 7 18 3 22 -4 5 1 5 11 2 15 -6 16 -4 7 13 -6 11 -8 25 -5 31 4 5 2
15 -3 22 -5 7 -6 21 -1 32 7 17 8 18 10 3 3 -33 4 -36 11 -43 4 -4 4 -13 1
-21 -3 -8 -1 -14 5 -14 6 0 9 8 7 18 -1 9 2 23 7 29 6 7 7 20 4 29 -4 11 -2
15 7 11 10 -4 13 2 11 19 -1 13 2 26 7 30 9 5 13 -8 10 -36 -2 -13 0 -13 8 -1
6 10 5 24 -5 43 -8 15 -12 28 -8 28 4 0 1 7 -6 15 -8 9 -8 15 -2 15 6 0 12 -5
14 -12 3 -8 9 -8 24 1 19 12 19 12 -1 7 -20 -6 -20 -6 -1 9 11 8 24 15 28 15
5 0 8 8 6 18 -2 11 2 16 12 14 12 -3 13 -1 3 9 -15 15 -17 33 -3 24 6 -3 10
-1 10 5 0 6 -11 8 -26 6 -22 -4 -24 -3 -13 10 7 8 18 13 25 10 12 -5 29 21 25
38 -1 5 5 6 14 3 8 -4 15 -2 15 2 0 7 -23 21 -35 21 -2 0 -2 -10 0 -22 4 -21
4 -21 -13 -5 -15 16 -15 19 -2 27 8 5 29 7 45 4 18 -2 25 -1 17 4 -10 7 -8 14
8 34 11 15 20 30 20 35 0 4 -5 1 -10 -9 -6 -9 -18 -15 -28 -13 -9 1 -26 -2
-37 -8 -21 -10 -18 -7 30 33 16 14 23 17 16 8 -9 -12 -10 -18 -2 -18 10 0 15
13 12 33 0 4 6 7 15 7 9 0 12 -5 8 -12 -4 -7 -3 -9 1 -5 5 4 10 14 11 21 2 11
-4 12 -26 4 -16 -5 -34 -16 -41 -24 -6 -8 -17 -14 -23 -14 -6 0 -3 5 7 11 9 6
14 15 11 21 -4 7 -2 8 4 4 7 -4 12 0 13 11 0 10 3 13 6 6 4 -10 9 -10 26 -1
12 7 27 11 32 9 6 -1 4 3 -2 10 -15 15 -17 33 -4 25 5 -3 15 2 22 12 12 15 12
16 -2 4 -14 -10 -18 -10 -23 3 -3 10 -11 13 -18 9 -7 -4 -10 -4 -6 1 4 4 0 14
-10 22 -15 13 -15 13 5 4 13 -7 24 -7 27 -2 4 5 0 11 -6 14 -7 2 -10 8 -6 12
4 4 13 1 21 -6 12 -12 12 -15 -2 -26 -15 -11 -14 -12 2 -13 16 0 22 11 18 34
-3 14 21 36 32 29 6 -4 7 -1 1 8 -12 20 -16 51 -5 45 5 -3 15 2 22 11 10 12
10 14 2 9 -7 -4 -13 -2 -13 3 0 6 -5 11 -11 11 -5 0 -8 -4 -4 -9 3 -5 1 -12
-4 -15 -5 -4 -12 -2 -16 4 -4 6 -10 8 -15 5 -5 -3 -11 -1 -15 4 -3 6 3 8 15 6
28 -5 34 11 10 28 -11 7 -17 17 -13 20 3 4 13 -2 21 -14 8 -11 20 -18 27 -15
8 3 16 0 19 -7 2 -7 5 -4 5 7 1 12 -4 16 -14 12 -8 -3 -19 3 -25 14 -13 24
-12 40 1 18 12 -22 29 -23 29 -2 0 8 -4 12 -10 9 -6 -4 -7 2 -1 17 6 17 3 26
-12 38 -16 14 -17 17 -4 17 9 0 14 -4 11 -9 -3 -4 -1 -8 4 -8 17 0 22 13 9 28
-9 13 -9 14 1 8 6 -4 12 -4 13 1 0 4 2 16 4 26 3 14 -1 17 -13 13 -15 -5 -15
-5 0 7 10 8 14 18 10 22 -4 5 -2 5 4 2 7 -4 15 0 18 9 9 23 8 26 -6 18 -7 -4
-5 2 5 13 18 21 18 22 0 32 -11 6 -13 11 -5 11 8 0 10 5 6 13 -5 8 -3 8 9 -2
9 -7 14 -17 11 -22 -9 -14 3 -10 21 7 12 12 13 19 4 30 -12 15 0 19 17 7 5 -5
3 -1 -6 7 -25 26 -41 60 -34 72 5 8 1 9 -12 4 -15 -6 -16 -5 -7 5 10 10 15 9
28 -1 11 -9 15 -9 15 -1 0 7 4 10 8 7 4 -2 14 0 22 6 12 8 12 9 -2 4 -10 -3
-18 -1 -18 4 0 6 6 10 13 10 8 0 7 4 -3 10 -13 9 -13 10 0 10 13 0 13 1 0 10
-13 8 -12 10 3 10 9 0 17 4 17 9 0 5 -7 8 -16 7 -9 0 -19 5 -21 12 -3 6 0 12
7 12 6 0 8 -6 4 -13 -5 -9 -4 -9 7 1 11 10 9 15 -9 28 -18 12 -20 19 -12 35 8
13 7 25 0 39 -6 11 -7 20 -3 19 20 -3 30 2 30 16 0 17 -13 20 -20 5 -3 -6 -4
-5 -3 2 5 23 29 14 33 -11 2 -14 6 -27 10 -30 3 -3 4 4 1 16 -3 12 -1 24 5 26
5 1 11 11 13 20 1 9 -2 15 -7 11 -5 -3 -7 -10 -4 -15 10 -15 -12 -10 -25 6 -7
8 -9 15 -4 15 4 0 3 5 -4 12 -15 15 -15 28 -1 28 5 0 7 -5 3 -12 -4 -7 -3 -8
4 -4 7 4 9 -1 7 -15 -4 -20 -3 -20 14 -5 18 16 24 46 9 46 -4 0 -8 -5 -8 -10
0 -6 -10 -4 -23 5 -13 8 -27 12 -30 8 -4 -3 -7 -1 -7 5 0 14 6 15 28 3 12 -6
24 -4 37 6 16 13 17 15 3 10 -21 -7 -48 1 -48 15 0 5 4 7 9 4 5 -4 11 -3 14 1
2 5 2 1 0 -7 -3 -11 -1 -12 8 -3 14 14 3 34 -16 26 -17 -6 -21 12 -5 22 6 3
10 11 10 16 0 6 -4 7 -10 4 -5 -3 -10 -1 -10 5 0 6 6 10 13 9 24 -3 47 1 47 9
0 4 -9 8 -19 8 -11 0 -17 -4 -15 -8 3 -4 -2 -5 -11 -1 -13 4 -14 8 -4 14 7 4
16 6 20 3 4 -2 11 1 15 7 4 8 3 9 -4 5 -7 -4 -12 -3 -12 3 0 5 5 13 10 16 8 5
7 12 -2 23 -11 13 -11 15 3 10 9 -4 16 -1 16 7 0 16 -31 4 -43 -17 -5 -7 -3
-8 6 -3 9 5 11 4 6 -3 -12 -20 -24 -14 -35 18 -6 18 -6 28 -1 25 6 -4 10 -14
10 -23 0 -12 3 -13 11 -5 7 7 8 17 3 25 -5 7 -9 21 -9 31 0 10 -6 21 -13 26
-11 6 -10 10 4 15 9 3 19 4 22 1 3 -3 0 -5 -8 -5 -9 0 -9 -4 -2 -12 6 -7 11
-17 11 -23 1 -5 4 -10 9 -10 4 0 14 -4 22 -9 11 -7 10 -4 -2 10 -14 16 -15 23
-5 34 10 12 9 12 -5 1 -11 -8 -18 -9 -18 -3 0 6 5 14 10 17 8 5 8 11 0 20 -8
9 -8 15 0 20 5 3 10 12 9 18 0 9 -2 9 -5 0 -4 -8 -13 -9 -30 -3 -23 9 -28 6
-25 -13 1 -5 -3 -6 -9 -2 -16 10 9 37 29 30 30 -9 55 30 29 46 -17 11 -37 12
-23 1 15 -11 18 -42 4 -42 -7 0 -9 3 -6 6 3 4 1 16 -5 28 -16 29 -20 56 -8 56
6 0 9 -5 8 -11 -2 -6 6 -13 18 -15 13 -2 21 2 21 11 0 8 -5 12 -10 8 -5 -3
-22 9 -37 26 -16 17 -24 31 -17 31 7 0 6 4 -3 10 -11 7 -11 10 -2 10 7 0 10 5
7 11 -4 6 -14 8 -21 5 -13 -5 -13 -3 0 15 8 12 12 28 9 35 -3 8 0 14 5 14 6 0
9 -15 7 -32 -2 -18 -1 -27 2 -20 2 6 8 10 12 8 4 -3 13 5 21 17 12 20 12 21
-3 9 -17 -14 -26 -6 -22 20 2 11 -2 15 -11 11 -10 -4 -12 0 -8 11 3 9 10 14
14 11 5 -3 11 -1 14 4 4 5 -2 8 -11 7 -10 -2 -21 1 -24 6 -4 6 -15 5 -30 -2
l-23 -13 18 28 c16 24 16 27 3 22 -23 -9 -29 6 -13 29 11 14 12 23 3 39 -6 11
-11 26 -12 33 0 7 -11 22 -25 33 -15 11 -18 17 -7 13 13 -5 16 -2 11 9 -3 8
-1 18 5 22 14 8 14 25 0 25 -5 0 -7 -4 -4 -10 3 -6 -1 -7 -10 -4 -11 5 -14 2
-9 -12 5 -16 4 -16 -5 -4 -11 15 -11 16 36 48 16 11 16 11 -4 2 -19 -9 -22 -7
-20 10 1 11 6 19 12 16 7 -2 12 2 12 9 0 8 -5 13 -11 12 -6 -1 -10 4 -8 11 2
10 -2 10 -17 0 -11 -7 -17 -16 -14 -21 3 -5 10 -3 14 4 6 9 8 4 5 -15 -3 -16
-10 -34 -17 -40 -9 -8 -9 -6 0 10 8 17 7 25 -3 33 -7 6 -17 7 -22 3 -4 -4 -3
1 4 10 11 14 10 18 -7 27 -13 8 -18 17 -14 28 5 12 3 14 -7 8 -9 -6 -11 -4 -5
5 4 7 2 15 -5 20 -8 5 -7 9 5 13 10 5 14 3 9 -5 -4 -7 -3 -8 4 -4 8 5 10 1 6
-11 -5 -15 -4 -16 6 -3 10 13 11 12 6 -3 -7 -21 11 -60 24 -52 5 3 8 14 7 25
-1 10 -5 16 -9 14 -8 -5 -11 13 -9 51 1 19 0 19 -7 1 -6 -14 -11 -16 -16 -8
-4 7 -11 10 -16 7 -11 -7 -44 6 -33 14 4 3 14 16 21 29 9 17 9 21 0 20 -7 -2
-12 3 -13 11 0 7 -15 22 -33 31 -31 17 -38 28 -25 40 4 3 3 -1 -2 -9 -5 -10
-4 -12 4 -7 6 4 26 -2 44 -14 l32 -22 -30 26 c-16 14 -33 26 -37 26 -5 0 -8 5
-8 11 0 5 4 8 8 5 5 -3 9 1 9 9 0 8 -6 16 -13 19 -8 3 -11 0 -8 -8 3 -7 -3
-19 -12 -27 -12 -9 -15 -10 -10 -1 4 6 3 12 -3 12 -6 0 -15 10 -22 21 -6 13
-7 19 -1 15 6 -3 13 0 16 6 3 7 3 3 0 -9 -3 -13 -1 -23 4 -23 14 0 11 33 -5
51 -9 10 -22 15 -35 11 -14 -3 -19 -1 -14 6 4 7 15 12 24 13 12 0 10 3 -6 10
-14 5 -20 13 -16 20 4 8 3 9 -5 5 -9 -6 -9 -11 0 -22 6 -8 7 -14 3 -14 -10 0
-39 42 -35 49 2 2 -3 7 -9 11 -7 4 -9 13 -5 19 5 9 11 7 21 -6 13 -17 14 -17
7 1 -5 14 -3 17 7 11 8 -5 11 -4 7 3 -8 11 -25 11 -45 -2 -15 -9 -44 22 -37
41 2 7 -2 10 -9 7 -8 -3 -17 0 -22 7 -4 7 -3 10 2 6 6 -3 16 -1 24 5 12 8 12
9 -2 5 -20 -7 -68 28 -68 49 0 8 -3 13 -7 12 -15 -5 -128 114 -125 130 2 13 1
14 -6 3 -9 -13 -30 0 -88 57 -7 6 -15 12 -19 12 -6 0 -66 40 -75 51 -6 6 -150
89 -156 89 -2 0 -23 9 -47 19 -63 29 -117 51 -167 67 -25 8 -52 18 -60 21 -8
3 -19 7 -25 9 -5 1 -44 11 -85 23 -41 11 -104 25 -140 32 -36 6 -76 13 -90 16
-29 6 -446 14 -451 9z m1746 -786 c3 -5 -1 -10 -10 -10 -9 0 -13 5 -10 10 3 6
8 10 10 10 2 0 7 -4 10 -10z m67 -140 c-2 -8 3 -10 15 -6 9 4 14 4 10 0 -4 -4
-1 -14 6 -22 10 -13 9 -14 -2 -7 -11 6 -13 4 -8 -8 11 -28 -1 -19 -18 13 -9
17 -12 30 -8 30 5 0 1 5 -7 11 -13 9 -13 10 0 6 8 -2 14 -10 12 -17z m106
-165 c-3 -3 -9 2 -12 12 -6 14 -5 15 5 6 7 -7 10 -15 7 -18z m42 -195 c0 -5
-4 -10 -10 -10 -5 0 -10 5 -10 10 0 6 5 10 10 10 6 0 10 -4 10 -10z m70 -160
c0 -5 -4 -10 -10 -10 -5 0 -10 5 -10 10 0 6 5 10 10 10 6 0 10 -4 10 -10z
m-10 -25 c0 -2 -6 -5 -13 -8 -8 -3 -14 1 -14 8 0 7 6 11 14 8 7 -3 13 -6 13
-8z m0 -29 c0 -2 -8 -10 -17 -17 -16 -13 -17 -12 -4 4 13 16 21 21 21 13z m24
-104 c3 -5 -1 -9 -9 -9 -8 0 -12 4 -9 9 3 4 7 8 9 8 2 0 6 -4 9 -8z m13 -98
c-3 -3 -12 -4 -19 -1 -8 3 -5 6 6 6 11 1 17 -2 13 -5z m30 -51 c-4 -3 -1 -13
5 -22 10 -13 10 -14 -1 -4 -7 6 -21 9 -30 6 -12 -3 -11 -1 3 11 19 16 36 22
23 9z m18 -163 c-3 -5 -16 -15 -28 -21 -19 -9 -19 -8 3 10 28 23 34 26 25 11z
m-58 -27 c-4 -3 -1 -13 6 -22 11 -14 10 -14 -5 -2 -16 12 -16 31 -1 31 4 0 3
-3 0 -7z m-1 -227 c0 -14 -3 -23 -7 -20 -6 3 -6 22 0 42 3 10 7 -2 7 -22z m21
-191 c0 -8 -4 -15 -9 -15 -4 0 -8 7 -8 15 0 8 4 15 8 15 5 0 9 -7 9 -15z m-2
-27 c3 3 3 -2 -1 -13 -5 -11 -9 -14 -12 -7 -2 7 -10 12 -17 12 -8 0 -17 4 -20
10 -4 7 2 7 18 1 14 -6 28 -7 32 -3z m-55 -78 c0 -5 -2 -10 -4 -10 -3 0 -8 5
-11 10 -3 6 -1 10 4 10 6 0 11 -4 11 -10z m30 -20 c6 -11 8 -20 6 -20 -3 0
-10 9 -16 20 -6 11 -8 20 -6 20 3 0 10 -9 16 -20z m15 -51 c-3 -4 -15 1 -25
11 -27 27 -25 34 5 14 14 -9 22 -20 20 -25z m-118 -361 c11 -18 11 -31 0 -45
-10 -14 -27 -8 -27 9 0 5 8 7 18 4 14 -5 14 -4 -2 9 -14 11 -16 15 -5 15 12 0
12 2 -1 10 -9 6 -10 10 -3 10 6 0 15 -6 20 -12z m-69 -123 c-3 -3 -9 2 -12 12
-6 14 -5 15 5 6 7 -7 10 -15 7 -18z m27 -27 c-2 -22 -25 -39 -25 -18 0 6 -6 8
-12 5 -7 -4 -2 3 11 14 29 26 28 26 26 -1z m-95 -74 c0 -8 -19 -13 -24 -6 -3
5 1 9 9 9 8 0 15 -2 15 -3z m50 -64 c-9 -16 -40 -19 -40 -4 0 4 35 20 48 23 1
1 -2 -8 -8 -19z m-80 -21 c0 -5 -4 -9 -8 -9 -5 0 -9 7 -9 15 0 8 4 12 9 9 4
-3 8 -9 8 -15z m-3 -49 c1 -11 -2 -22 -6 -24 -6 -4 -7 26 -2 42 3 8 7 -1 8
-18z m38 -8 c-3 -3 -11 0 -18 7 -9 10 -8 11 6 5 10 -3 15 -9 12 -12z m-55 -36
c0 -3 -4 -8 -10 -11 -5 -3 -10 -1 -10 4 0 6 5 11 10 11 6 0 10 -2 10 -4z m33
-23 c4 -3 -1 -12 -11 -19 -14 -11 -14 -13 -2 -14 12 0 10 -4 -4 -15 -26 -20
-35 -19 -33 4 0 11 4 18 8 15 4 -2 13 4 20 13 12 15 12 16 -4 10 -11 -4 -16
-3 -12 3 7 11 28 13 38 3z m-69 -109 c4 -9 1 -23 -5 -30 -6 -8 -8 -14 -4 -14
4 0 1 -7 -6 -17 -8 -9 -13 -24 -11 -34 2 -9 -1 -20 -6 -22 -4 -3 -8 4 -9 16 0
12 -2 29 -5 37 -3 8 -3 12 -1 8 3 -5 9 -8 14 -8 6 0 8 4 5 9 -3 5 1 14 9 21 8
7 15 17 15 22 0 6 -7 5 -15 -2 -11 -9 -19 -10 -26 -3 -8 8 -6 11 7 10 11 -1
18 4 17 11 -4 18 14 15 21 -4z m-78 -153 c-21 -24 -20 -37 2 -20 15 12 16 12
5 -2 -7 -9 -11 -18 -8 -21 3 -3 -2 -11 -11 -19 -15 -12 -16 -11 -10 9 6 18 4
21 -11 15 -18 -7 -17 -4 24 41 7 8 9 17 5 21 -4 5 -1 5 6 1 11 -7 10 -11 -2
-25z m-42 -63 c-4 -5 -8 -7 -12 -4 -3 3 -11 -2 -19 -12 -13 -15 -13 -15 -4 4
5 11 17 21 25 21 8 0 13 -4 10 -9z m-30 -88 c6 0 4 -5 -4 -10 -11 -7 -11 -10
-2 -10 7 0 11 -4 7 -10 -7 -11 -55 28 -55 44 0 6 5 3 11 -6 14 -25 33 -23 19
1 -5 11 -10 23 -9 28 0 4 5 -2 11 -14 6 -13 16 -23 22 -23z m-54 -40 c-6 -11
-13 -20 -16 -20 -2 0 0 9 6 20 6 11 13 20 16 20 2 0 0 -9 -6 -20z m6 -29 c-4
-5 -1 -11 6 -13 8 -3 6 -6 -4 -10 -11 -5 -15 -2 -13 10 5 23 4 22 11 22 3 0 3
-4 0 -9z m-86 -121 c0 -5 -4 -10 -10 -10 -5 0 -10 5 -10 10 0 6 5 10 10 10 6
0 10 -4 10 -10z m-49 -63 c-10 -9 -11 -8 -5 6 3 10 9 15 12 12 3 -3 0 -11 -7
-18z m-14 -41 c-3 -7 0 -19 6 -25 9 -9 8 -11 -5 -6 -10 4 -18 9 -18 10 0 9 13
35 17 35 3 0 3 -6 0 -14z m-37 -10 c0 -2 -7 -7 -16 -10 -8 -3 -12 -2 -9 4 6
10 25 14 25 6z m-60 -106 c0 -5 -5 -10 -11 -10 -5 0 -7 5 -4 10 3 6 8 10 11
10 2 0 4 -4 4 -10z m-35 -68 c-3 -3 -11 0 -18 7 -9 10 -8 11 6 5 10 -3 15 -9
12 -12z m-50 -71 c-3 -6 -14 -10 -23 -10 -15 1 -15 2 1 6 9 2 17 9 17 15 0 6
3 9 6 5 3 -3 3 -10 -1 -16z m20 -31 c-3 -5 -13 -6 -21 -3 -12 4 -13 8 -3 14
15 9 32 2 24 -11z m-32 -63 c-5 -8 -8 -8 -10 0 -3 7 -10 11 -16 9 -7 -1 -9 -1
-4 1 14 8 -4 22 -21 17 -14 -5 -14 -4 -3 4 18 13 64 -15 54 -31z m-4060 -27
c16 -16 33 -30 38 -30 6 0 7 -4 4 -10 -3 -5 -19 4 -35 20 -16 16 -30 25 -32
19 -2 -6 -12 -1 -22 10 -19 21 -19 21 0 21 10 0 32 -13 47 -30z m3950 -35 c-3
-9 -8 -14 -10 -11 -3 3 -2 9 2 15 9 16 15 13 8 -4z m-8 -33 c-3 -3 -11 0 -18
7 -9 10 -8 11 6 5 10 -3 15 -9 12 -12z m-31 -78 c3 -8 2 -13 -3 -9 -5 3 -11
-1 -14 -7 -3 -7 -4 -3 -4 10 1 25 12 29 21 6z m-74 -44 c0 -5 -10 -15 -22 -21
l-23 -12 20 21 c23 24 25 25 25 12z m26 -34 c1 -8 -5 -13 -15 -11 -9 2 -20 4
-25 4 -6 1 -1 7 10 15 20 15 27 14 30 -8z m-3522 -50 c-3 -9 -10 -13 -15 -10
-5 3 -3 11 4 19 15 16 19 13 11 -9z m3438 7 c-6 -2 -9 -10 -6 -15 4 -7 2 -8
-5 -4 -13 9 -5 26 12 25 9 0 8 -2 -1 -6z m-17 -33 c3 -6 -1 -7 -9 -4 -18 7
-21 14 -7 14 6 0 13 -4 16 -10z m-16 -39 c9 -6 10 -11 2 -15 -6 -4 -11 -2 -11
4 0 6 -4 8 -10 5 -5 -3 -10 -1 -10 4 0 13 10 14 29 2z m-3169 -111 c0 -5 -2
-10 -4 -10 -3 0 -8 5 -11 10 -3 6 -1 10 4 10 6 0 11 -4 11 -10z m57 -25 c0 -8
-4 -15 -9 -15 -10 0 -11 14 -1 23 9 10 10 9 10 -8z m48 -24 c-3 -5 -1 -12 4
-15 5 -3 12 1 15 10 4 9 9 14 13 11 3 -4 0 -13 -7 -22 -10 -12 -16 -13 -26 -4
-12 10 -11 29 2 29 3 0 3 -4 -1 -9z m2872 -16 c0 -8 -4 -15 -9 -15 -10 0 -11
14 -1 23 9 10 10 9 10 -8z m-2746 -58 c-6 -8 -7 -18 -3 -22 4 -5 1 -5 -6 -1
-10 6 -10 11 -1 22 6 8 14 14 16 14 3 0 0 -6 -6 -13z m2664 -47 c-3 -5 -12
-10 -18 -10 -7 0 -6 4 3 10 19 12 23 12 15 0z m10 -20 c-3 -5 0 -10 7 -10 8 0
9 -3 3 -8 -5 -4 -10 -14 -10 -22 0 -8 -14 -24 -32 -35 -18 -11 -30 -25 -28
-32 2 -6 -2 -14 -9 -16 -9 -4 -13 6 -13 35 0 23 3 34 8 27 4 -7 5 -17 2 -23
-3 -5 -1 -6 5 -2 6 3 9 15 7 25 -3 15 2 18 21 16 13 -1 27 2 31 8 3 6 2 7 -4
4 -6 -4 -19 0 -29 9 -18 14 -18 15 3 5 14 -7 24 -8 28 -1 3 5 0 10 -7 10 -9 0
-9 3 2 10 19 12 23 12 15 0z m-2430 -68 c-3 -3 -11 0 -18 7 -9 10 -8 11 6 5
10 -3 15 -9 12 -12z m83 -47 c-3 -3 -9 2 -12 12 -6 14 -5 15 5 6 7 -7 10 -15
7 -18z m119 -75 c-1 -11 -5 -20 -9 -20 -10 0 -10 4 -2 24 8 22 13 20 11 -4z
m138 -70 c3 -5 1 -10 -5 -10 -6 0 -8 -5 -4 -12 6 -10 5 -10 -8 -1 -8 7 -19 9
-24 5 -4 -4 -2 1 5 11 15 19 27 22 36 7z m103 -47 c-20 -5 -24 -28 -8 -38 6
-4 9 -1 8 7 -2 8 4 12 16 10 10 -2 16 1 12 6 -3 5 1 9 9 9 11 0 12 -4 4 -13
-7 -8 -7 -14 1 -19 6 -3 8 -11 4 -16 -4 -6 -10 -6 -19 1 -7 6 -19 8 -28 4 -22
-8 -45 35 -26 47 8 5 21 8 29 8 11 -1 10 -3 -2 -6z m108 -60 c-3 10 -2 15 3
12 6 -3 9 -14 8 -24 -1 -15 -4 -17 -19 -7 -10 6 -18 17 -18 25 0 11 4 10 16
-5 14 -17 15 -17 10 -1z m1544 1 c7 -7 5 -16 -8 -27 -16 -15 -19 -15 -31 4 -9
16 -10 19 0 13 9 -5 11 -2 6 8 -6 18 16 19 33 2z m-1454 -21 c-1 -7 -5 -15 -9
-18 -4 -3 -5 -2 -2 2 3 3 -2 11 -11 17 -13 10 -13 12 4 12 11 0 19 -6 18 -13z
m1369 -13 c-3 -5 -12 -10 -18 -10 -7 0 -6 4 3 10 19 12 23 12 15 0z m40 0 c3
-6 -1 -7 -9 -4 -18 7 -21 14 -7 14 6 0 13 -4 16 -10z m-1390 -10 c-3 -5 -1
-10 5 -10 15 0 -9 -24 -32 -33 -26 -10 -23 17 5 36 26 19 30 20 22 7z m45 -4
c0 -3 -4 -8 -10 -11 -5 -3 -10 -1 -10 4 0 6 5 11 10 11 6 0 10 -2 10 -4z
m1300 -31 c11 -13 10 -14 -4 -9 -9 3 -16 10 -16 15 0 13 6 11 20 -6z m-1320
-5 c0 -5 -2 -10 -4 -10 -3 0 -8 5 -11 10 -3 6 -1 10 4 10 6 0 11 -4 11 -10z
m1287 -20 c1 -9 -14 -34 -32 -55 -19 -22 -34 -34 -35 -27 0 6 6 12 13 12 8 0
7 4 -3 11 -13 9 -13 10 2 6 17 -6 33 18 23 34 -4 5 2 6 11 2 12 -4 15 -2 12 8
-3 8 -14 13 -24 11 -14 -2 -15 0 -6 6 20 14 38 10 39 -8z m-1127 -10 c0 -5 -5
-10 -11 -10 -5 0 -7 5 -4 10 3 6 8 10 11 10 2 0 4 -4 4 -10z m20 -25 c-7 -9
-15 -13 -19 -10 -3 3 1 10 9 15 21 14 24 12 10 -5z m35 5 c3 -5 1 -10 -4 -10
-6 0 -11 5 -11 10 0 6 2 10 4 10 3 0 8 -4 11 -10z m980 -8 c-3 -3 -11 0 -18 7
-9 10 -8 11 6 5 10 -3 15 -9 12 -12z m45 10 c0 -5 -7 -9 -15 -9 -8 0 -12 4 -9
9 3 4 9 8 15 8 5 0 9 -4 9 -8z m-1020 -35 c0 -4 5 -5 10 -2 6 3 10 0 10 -7 0
-10 2 -11 8 0 6 9 12 6 20 -13 6 -14 16 -25 22 -25 6 0 9 4 5 9 -3 5 0 13 7
17 7 4 10 4 6 -1 -4 -4 -3 -14 3 -22 9 -10 8 -17 -2 -29 -11 -14 -15 -11 -36
23 -12 21 -23 31 -23 23 0 -10 -3 -11 -8 -4 -4 6 -20 18 -37 27 -26 14 -27 16
-7 14 12 -1 22 -5 22 -10z m80 -3 c0 -8 -19 -13 -24 -6 -3 5 1 9 9 9 8 0 15
-2 15 -3z m860 -44 c0 -5 -4 -10 -10 -10 -5 0 -10 5 -10 10 0 6 5 10 10 10 6
0 10 -4 10 -10z m-763 -6 c-3 -3 -12 -4 -19 -1 -8 3 -5 6 6 6 11 1 17 -2 13
-5z m61 -21 c-9 -10 -13 -25 -11 -33 3 -10 0 -9 -7 3 -6 9 -16 14 -22 11 -7
-4 -8 -2 -4 5 4 6 11 9 16 6 4 -3 13 2 20 10 7 8 15 15 18 15 3 0 -2 -8 -10
-17z m666 -26 c-3 -35 -4 -38 -13 -32 -6 3 -15 -3 -20 -14 -6 -11 -18 -18 -28
-17 -19 3 -26 33 -11 43 6 3 8 1 5 -4 -4 -6 1 -17 10 -24 15 -12 16 -12 10 4
-4 10 -3 16 3 12 5 -3 14 4 20 15 10 19 7 24 -13 21 -5 -1 -6 3 -3 8 10 15 41
5 40 -12z m-567 -37 c-2 -23 -10 -17 -12 10 -1 10 2 17 6 14 4 -2 7 -13 6 -24z
m53 -25 c-7 -8 -17 -12 -23 -8 -6 4 -3 9 9 14 27 11 28 11 14 -6z m391 -2 c13
-16 12 -17 -3 -4 -17 13 -22 21 -14 21 2 0 10 -8 17 -17z m-208 -50 c-3 -7 -6
-13 -8 -13 -2 0 -5 6 -8 13 -3 8 1 14 8 14 7 0 11 -6 8 -14z m37 2 c7 -9 8
-15 2 -15 -5 0 -12 7 -16 15 -3 8 -4 15 -2 15 2 0 9 -7 16 -15z m61 -8 c-8 -8
-6 -16 6 -29 15 -17 15 -18 -5 -15 -12 2 -25 7 -29 12 -5 4 -2 4 6 0 11 -6 13
-4 8 8 -3 9 -2 19 4 22 5 4 6 11 3 17 -5 7 -2 8 5 3 9 -5 10 -10 2 -18z"/>
<path d="M4705 1060 c-3 -5 1 -10 9 -10 9 0 16 5 16 10 0 6 -4 10 -9 10 -6 0
-13 -4 -16 -10z"/>
<path d="M4404 752 c3 -5 0 -13 -6 -15 -9 -4 -10 -6 -1 -6 17 -1 25 16 12 25
-7 4 -9 3 -5 -4z"/>
<path d="M2960 690 c-9 -6 -10 -10 -3 -10 6 0 15 5 18 10 8 12 4 12 -15 0z"/>
<path d="M5676 5657 c3 -10 9 -15 12 -12 3 3 0 11 -7 18 -10 9 -11 8 -5 -6z"/>
<path d="M5713 5630 c-1 -10 8 -26 20 -37 l22 -18 -18 22 c-11 12 -16 26 -13
32 4 5 3 12 -2 15 -4 2 -8 -4 -9 -14z"/>
<path d="M5799 5553 c-13 -16 -12 -17 4 -4 9 7 17 15 17 17 0 8 -8 3 -21 -13z"/>
<path d="M5786 5518 c3 -4 9 -8 15 -8 5 0 9 4 9 8 0 5 -7 9 -15 9 -8 0 -12 -4
-9 -9z"/>
<path d="M5835 5450 c3 -5 8 -10 11 -10 2 0 4 5 4 10 0 6 -5 10 -11 10 -5 0
-7 -4 -4 -10z"/>
<path d="M6016 5174 c-3 -7 2 -10 15 -7 22 6 26 20 4 20 -8 0 -16 -6 -19 -13z"/>
<path d="M6147 4981 c6 -7 9 -20 6 -27 -3 -8 -3 -14 0 -14 14 0 14 30 -1 41
-14 11 -15 11 -5 0z"/>
<path d="M6129 4945 c-5 -20 -2 -33 13 -49 10 -11 21 -16 25 -13 3 4 0 7 -8 7
-11 0 -11 2 1 10 13 8 12 10 -3 10 -10 0 -15 5 -12 10 3 6 1 10 -5 10 -6 0 -8
5 -5 10 3 6 4 10 1 10 -3 0 -7 -2 -7 -5z"/>
<path d="M6172 4874 c-7 -8 -18 -11 -24 -8 -7 4 -8 2 -4 -4 8 -14 46 2 46 18
0 13 -2 12 -18 -6z"/>
<path d="M6167 4844 c-3 -3 -3 -12 0 -20 3 -8 1 -14 -5 -14 -5 0 -13 -7 -16
-16 -3 -8 -2 -12 4 -9 19 12 32 -6 18 -23 -12 -15 -11 -16 5 -3 11 9 17 10 17
2 0 -6 8 -11 17 -11 15 0 14 2 -3 14 -10 8 -16 18 -11 22 4 4 0 19 -9 32 -15
23 -15 25 0 19 10 -4 15 -3 11 3 -7 11 -19 13 -28 4z m18 -44 c3 -5 1 -10 -4
-10 -6 0 -11 5 -11 10 0 6 2 10 4 10 3 0 8 -4 11 -10z"/>
<path d="M6235 4771 c-3 -5 -2 -12 3 -15 5 -3 9 1 9 9 0 17 -3 19 -12 6z"/>
<path d="M6213 4616 c0 -8 8 -11 20 -8 14 4 16 7 5 13 -19 12 -25 11 -25 -5z"/>
<path d="M6227 4591 c-18 -6 -18 -8 -2 -21 26 -21 41 -20 42 4 2 19 1 19 -8 3
-6 -9 -15 -15 -20 -11 -6 4 -6 11 2 20 13 16 12 16 -14 5z"/>
<path d="M6275 4400 c3 -5 8 -10 11 -10 2 0 4 5 4 10 0 6 -5 10 -11 10 -5 0
-7 -4 -4 -10z"/>
<path d="M6286 4338 c3 -5 10 -6 15 -3 13 9 11 12 -6 12 -8 0 -12 -4 -9 -9z"/>
<path d="M6247 4309 c7 -7 15 -10 18 -7 3 3 -2 9 -12 12 -14 6 -15 5 -6 -5z"/>
<path d="M6252 4158 c-8 -10 -4 -13 16 -14 15 -1 21 1 14 3 -6 3 -10 9 -6 14
8 14 -12 11 -24 -3z"/>
<path d="M6285 4120 c-3 -5 -1 -10 4 -10 6 0 11 5 11 10 0 6 -2 10 -4 10 -3 0
-8 -4 -11 -10z"/>
<path d="M6230 3941 c0 -5 6 -11 12 -13 9 -3 8 -10 -5 -22 -17 -18 -15 -36 5
-36 5 0 8 6 5 14 -3 7 -1 18 4 23 11 11 2 43 -12 43 -5 0 -9 -4 -9 -9z"/>
<path d="M6267 3911 c-4 -17 -3 -21 5 -13 5 5 8 16 6 23 -3 8 -7 3 -11 -10z"/>
<path d="M6200 3724 c0 -6 11 -20 23 -32 18 -17 24 -19 24 -8 0 8 -4 13 -8 10
-4 -2 -10 0 -14 6 -3 5 2 10 12 10 15 0 16 2 3 10 -10 6 -16 6 -19 -1 -2 -7
-7 -6 -12 2 -5 8 -9 9 -9 3z"/>
<path d="M6185 3581 c-3 -5 0 -13 6 -17 7 -4 9 -3 5 4 -3 6 2 13 11 15 16 4
16 5 1 6 -9 0 -19 -3 -23 -8z"/>
<path d="M6210 3555 c0 -8 2 -15 4 -15 2 0 6 7 10 15 3 8 1 15 -4 15 -6 0 -10
-7 -10 -15z"/>
<path d="M6178 3533 c-8 -10 -14 -30 -13 -45 1 -16 -2 -28 -7 -28 -4 0 -7 -3
-7 -7 1 -5 0 -10 -1 -13 -7 -16 -6 -62 2 -66 4 -3 6 -9 4 -13 -3 -4 1 -8 9 -8
11 0 12 4 4 14 -9 10 -8 13 2 13 9 0 6 5 -6 12 -19 11 -19 11 0 19 18 7 18 8
2 8 -10 1 -15 6 -12 11 4 6 11 8 16 5 5 -3 6 2 2 11 -4 10 -2 15 3 11 6 -3 11
3 11 14 1 10 -3 19 -8 19 -6 0 -7 5 -4 10 4 7 12 7 25 0 13 -7 21 -7 25 0 4 6
3 10 -2 9 -4 -1 -15 -1 -23 0 -13 1 -13 2 0 11 11 7 11 10 2 10 -7 0 -10 5 -7
10 10 16 -1 11 -17 -7z"/>
<path d="M6195 3439 c-4 -6 -5 -12 -2 -15 2 -3 7 2 10 11 7 17 1 20 -8 4z"/>
<path d="M6135 3259 c-4 -6 -5 -12 -2 -15 2 -3 7 2 10 11 7 17 1 20 -8 4z"/>
<path d="M6096 3115 c-9 -26 -7 -32 5 -12 6 10 9 21 6 23 -2 3 -7 -2 -11 -11z"/>
<path d="M5986 2883 c-6 -14 -5 -15 5 -6 7 7 10 15 7 18 -3 3 -9 -2 -12 -12z"/>
<path d="M5930 2739 c0 -5 5 -7 10 -4 6 3 10 8 10 11 0 2 -4 4 -10 4 -5 0 -10
-5 -10 -11z"/>
<path d="M484 2562 c4 -3 14 -7 22 -8 9 -1 13 0 10 4 -4 3 -14 7 -22 8 -9 1
-13 0 -10 -4z"/>
<path d="M533 2489 c-2 -23 3 -25 10 -4 4 8 3 16 -1 19 -4 3 -9 -4 -9 -15z"/>
<path d="M5755 2490 c-3 -5 -1 -10 4 -10 6 0 11 5 11 10 0 6 -2 10 -4 10 -3 0
-8 -4 -11 -10z"/>
<path d="M636 2353 c-6 -14 -5 -15 5 -6 7 7 10 15 7 18 -3 3 -9 -2 -12 -12z"/>
<path d="M655 2320 c3 -5 8 -10 11 -10 2 0 4 5 4 10 0 6 -5 10 -11 10 -5 0 -7
-4 -4 -10z"/>
<path d="M673 2285 c0 -8 4 -12 9 -9 5 3 6 10 3 15 -9 13 -12 11 -12 -6z"/>
<path d="M5630 2268 c-8 -13 -13 -26 -13 -29 1 -4 -6 -14 -17 -24 -11 -10 -16
-24 -13 -33 4 -9 2 -13 -4 -9 -6 4 -16 1 -22 -6 -8 -11 -7 -14 7 -14 22 0 52
29 35 34 -8 3 -4 13 10 29 12 14 20 28 19 31 -2 3 2 9 8 13 7 4 11 13 9 19 -2
6 -11 1 -19 -11z"/>
<path d="M5643 2223 c-16 -6 -17 -33 -1 -33 6 0 8 3 5 7 -4 3 -2 12 4 20 12
14 11 14 -8 6z"/>
<path d="M750 2216 c0 -2 7 -9 15 -16 13 -11 14 -10 9 4 -5 14 -24 23 -24 12z"/>
<path d="M807 2164 c7 -3 9 -13 6 -22 -4 -14 -3 -14 5 -2 12 16 7 30 -11 29
-9 0 -9 -2 0 -5z"/>
<path d="M835 2100 c3 -5 8 -10 11 -10 2 0 4 5 4 10 0 6 -5 10 -11 10 -5 0 -7
-4 -4 -10z"/>
<path d="M860 2080 c-8 -5 -10 -10 -5 -10 6 0 17 5 25 10 8 5 11 10 5 10 -5 0
-17 -5 -25 -10z"/>
<path d="M903 2076 c4 -10 7 -20 7 -22 0 -3 5 -2 10 1 6 3 10 -1 10 -9 0 -9 4
-16 10 -16 5 0 27 -16 47 -36 21 -20 30 -34 21 -31 -10 4 -18 2 -18 -3 0 -5
11 -9 25 -8 14 1 25 3 25 3 0 1 -32 32 -72 69 -39 38 -68 61 -65 52z"/>
<path d="M5535 2060 c3 -5 8 -10 11 -10 2 0 4 5 4 10 0 6 -5 10 -11 10 -5 0
-7 -4 -4 -10z"/>
<path d="M930 1998 c0 -6 3 -8 7 -5 3 4 15 0 25 -10 22 -20 24 -11 2 11 -18
19 -34 21 -34 4z"/>
<path d="M1042 1936 c4 -5 2 -16 -4 -25 -10 -13 -10 -14 2 -4 9 8 19 9 31 2
15 -8 17 -6 13 6 -4 9 -9 13 -12 11 -3 -3 -12 0 -21 6 -9 7 -13 8 -9 4z"/>
<path d="M5395 1920 c-3 -5 -5 -10 -3 -11 33 -8 38 -7 27 7 -14 17 -16 17 -24
4z"/>
<path d="M1058 1893 c6 -2 10 -8 7 -13 -7 -11 22 -7 32 5 4 4 3 5 -4 1 -6 -3
-14 -2 -18 4 -3 5 -12 10 -18 9 -9 0 -8 -2 1 -6z"/>
<path d="M1134 1849 c-4 -7 -3 -9 4 -5 5 3 12 0 15 -6 2 -7 7 -10 11 -7 4 3 0
12 -8 18 -11 9 -16 9 -22 0z"/>
<path d="M1244 1719 c-4 -7 -3 -9 4 -5 5 3 13 0 15 -6 4 -9 6 -10 6 -1 1 17
-16 25 -25 12z"/>
<path d="M1312 1690 c-26 -24 -28 -32 -7 -24 8 4 15 10 15 16 0 5 4 7 9 3 6
-3 8 -13 6 -23 -2 -12 3 -18 16 -18 10 0 19 4 19 9 0 4 5 5 10 2 17 -10 -8
-35 -28 -28 -14 4 -14 3 -3 -5 17 -12 37 -6 45 13 5 14 -37 55 -56 55 -5 0 -6
5 -3 10 10 16 1 12 -23 -10z m55 -26 c-3 -3 -12 -4 -19 -1 -8 3 -5 6 6 6 11 1
17 -2 13 -5z"/>
<path d="M5237 1633 c-10 -9 -9 -23 1 -23 5 0 9 7 9 15 0 17 -1 18 -10 8z"/>
<path d="M1495 1571 c5 -9 1 -20 -11 -29 -15 -12 -16 -14 -2 -9 9 3 19 1 22
-6 3 -9 5 -8 5 1 1 7 6 10 11 7 8 -5 7 -11 -1 -21 -10 -12 -9 -13 5 -8 21 8
20 13 -10 49 -15 17 -23 24 -19 16z"/>
<path d="M5150 1566 c0 -2 7 -7 16 -10 8 -3 12 -2 9 4 -6 10 -25 14 -25 6z"/>
<path d="M5084 1488 c-4 -6 -3 -8 4 -4 5 3 13 0 15 -6 3 -8 6 -6 6 5 1 19 -14
23 -25 5z"/>
<path d="M5156 1487 c3 -10 9 -15 12 -12 3 3 0 11 -7 18 -10 9 -11 8 -5 -6z"/>
<path d="M1637 1460 c-7 -21 -5 -50 4 -50 13 0 19 31 10 48 -8 15 -10 15 -14
2z"/>
<path d="M5090 1450 c-9 -6 -10 -10 -3 -10 6 0 15 5 18 10 8 12 4 12 -15 0z"/>
<path d="M5075 1420 c-3 -5 -1 -10 4 -10 6 0 11 5 11 10 0 6 -2 10 -4 10 -3 0
-8 -4 -11 -10z"/>
<path d="M1656 1387 c3 -10 9 -15 12 -12 3 3 0 11 -7 18 -10 9 -11 8 -5 -6z"/>
<path d="M1711 1364 c0 -11 3 -14 6 -6 3 7 2 16 -1 19 -3 4 -6 -2 -5 -13z"/>
<path d="M1742 1366 c7 -8 15 -12 17 -11 5 6 -10 25 -20 25 -5 0 -4 -6 3 -14z"/>
<path d="M1770 1358 c0 -9 -3 -18 -7 -21 -5 -2 -3 -3 4 -1 17 4 24 -8 12 -22
-7 -8 -7 -14 1 -19 6 -4 9 -1 8 6 -2 7 8 18 20 25 13 6 19 15 14 18 -6 3 -14
1 -18 -5 -4 -8 -11 -4 -20 12 -10 18 -13 19 -14 7z"/>
<path d="M5011 1327 c-13 -21 -12 -21 5 -5 10 10 16 20 13 22 -3 3 -11 -5 -18
-17z"/>
<path d="M1715 1329 c-4 -6 -5 -12 -2 -15 2 -3 7 2 10 11 7 17 1 20 -8 4z"/>
<path d="M4956 1325 c-9 -9 -16 -12 -16 -5 0 6 -5 8 -10 5 -6 -4 -4 -12 5 -21
8 -9 12 -20 9 -26 -4 -7 -2 -8 5 -4 6 4 9 12 6 17 -11 16 5 31 20 19 10 -8 13
-7 11 4 -3 25 -13 28 -30 11z"/>
<path d="M1835 1271 c-3 -5 -2 -12 3 -15 5 -3 9 1 9 9 0 17 -3 19 -12 6z"/>
<path d="M1875 1250 c10 -11 20 -20 23 -20 3 0 -3 9 -13 20 -10 11 -20 20 -23
20 -3 0 3 -9 13 -20z"/>
<path d="M4914 1242 c3 -5 0 -13 -6 -15 -9 -4 -10 -6 -1 -6 17 -1 25 16 12 25
-7 4 -9 3 -5 -4z"/>
<path d="M1998 1173 c7 -3 16 -2 19 1 4 3 -2 6 -13 5 -11 0 -14 -3 -6 -6z"/>
<path d="M4791 1161 c-11 -7 -9 -11 7 -20 16 -9 20 -8 18 4 -3 21 -10 25 -25
16z"/>
<path d="M4857 1155 c-4 -8 -3 -16 1 -19 4 -3 9 4 9 15 2 23 -3 25 -10 4z"/>
<path d="M2114 1143 c4 -7 2 -13 -3 -13 -20 0 -11 -16 9 -17 24 -2 26 10 3 28
-11 10 -14 10 -9 2z"/>
<path d="M2150 1121 c0 -6 5 -13 10 -16 6 -4 8 -10 5 -15 -3 -5 0 -12 6 -16 8
-5 9 -3 4 6 -5 9 -1 10 16 6 21 -6 21 -5 -4 9 -15 9 -25 20 -22 25 4 6 1 10
-4 10 -6 0 -11 -4 -11 -9z"/>
<path d="M4790 1120 c0 -5 5 -10 11 -10 5 0 7 5 4 10 -3 6 -8 10 -11 10 -2 0
-4 -4 -4 -10z"/>
<path d="M2141 1084 c0 -11 3 -14 6 -6 3 7 2 16 -1 19 -3 4 -6 -2 -5 -13z"/>
<path d="M2195 1065 l-30 -14 28 6 c23 4 26 3 21 -13 -6 -18 -6 -18 8 0 15 19
15 19 26 0 6 -10 12 -14 12 -7 0 9 -27 44 -33 43 -1 -1 -15 -7 -32 -15z"/>
<path d="M4750 1021 c0 -6 4 -13 10 -16 6 -3 7 1 4 9 -7 18 -14 21 -14 7z"/>
<path d="M2230 1005 c0 -7 30 -13 34 -7 3 4 -4 9 -15 9 -10 1 -19 0 -19 -2z"/>
<path d="M2285 1000 c3 -5 8 -10 11 -10 2 0 4 5 4 10 0 6 -5 10 -11 10 -5 0
-7 -4 -4 -10z"/>
<path d="M2360 990 c-8 -5 -12 -12 -9 -15 4 -3 12 1 19 10 14 17 11 19 -10 5z"/>
<path d="M4600 960 c-1 -3 -3 -13 -5 -23 -2 -10 -12 -25 -22 -33 -10 -7 -13
-14 -6 -14 6 0 19 10 27 22 15 21 21 18 16 -7 -1 -5 2 -6 6 -2 11 11 14 38 4
32 -5 -3 -11 3 -13 12 -3 10 -6 16 -7 13z"/>
<path d="M2389 923 c-13 -16 -12 -17 4 -4 16 13 21 21 13 21 -2 0 -10 -8 -17
-17z"/>
<path d="M2517 875 c-4 -8 -1 -17 5 -21 7 -4 8 -3 4 4 -4 7 -2 12 3 12 6 0 11
5 11 10 0 15 -17 12 -23 -5z"/>
<path d="M4580 880 c-8 -5 -10 -10 -5 -10 6 0 17 5 25 10 8 5 11 10 5 10 -5 0
-17 -5 -25 -10z"/>
<path d="M2643 802 c9 -10 14 -22 10 -27 -5 -4 -3 -5 4 -1 15 8 7 32 -15 41
-14 5 -14 4 1 -13z"/>
<path d="M2700 766 c0 -2 8 -10 18 -17 15 -13 16 -12 3 4 -13 16 -21 21 -21
13z"/>
<path d="M4371 673 c0 -10 3 -13 5 -6 3 7 13 9 22 6 15 -4 15 -3 2 6 -22 15
-30 14 -29 -6z"/>
<path d="M3090 621 c0 -8 -8 -11 -18 -9 -11 3 -19 0 -19 -7 0 -7 8 -10 19 -7
21 5 33 20 24 29 -3 4 -6 1 -6 -6z"/>
<path d="M3210 542 c0 -5 7 -9 15 -9 8 0 12 4 9 9 -3 4 -9 8 -15 8 -5 0 -9 -4
-9 -8z"/>
<path d="M3239 513 c-13 -16 -12 -17 4 -4 16 13 21 21 13 21 -2 0 -10 -8 -17
-17z"/>
<path d="M4230 519 c0 -5 5 -7 10 -4 6 3 10 8 10 11 0 2 -4 4 -10 4 -5 0 -10
-5 -10 -11z"/>
<path d="M4197 509 c-9 -5 -21 -8 -25 -5 -5 3 -9 -1 -9 -8 0 -8 7 -12 15 -8
11 4 13 1 7 -9 -5 -8 -5 -11 1 -6 5 5 8 11 6 14 -2 3 5 11 15 19 21 16 16 18
-10 3z"/>
<path d="M3410 459 c0 -5 4 -8 9 -4 5 3 12 1 16 -5 3 -5 11 -10 18 -10 6 0 2
7 -9 15 -23 17 -34 19 -34 4z"/>
<path d="M4111 404 c0 -11 3 -14 6 -6 3 7 2 16 -1 19 -3 4 -6 -2 -5 -13z"/>
<path d="M3642 390 c-7 -11 -8 -20 -3 -20 9 0 24 30 18 36 -1 2 -8 -6 -15 -16z"/>
<path d="M3670 401 c0 -6 5 -11 11 -11 5 0 7 -6 3 -12 -5 -9 -2 -9 9 1 9 7 17
16 17 19 0 3 -3 2 -7 -1 -3 -4 -12 -2 -20 4 -9 9 -13 8 -13 0z"/>
<path d="M4042 406 c4 -5 1 -14 -7 -20 -9 -7 -12 -16 -6 -25 10 -16 27 -8 42
22 7 12 8 19 4 15 -5 -4 -15 -2 -24 4 -9 7 -13 8 -9 4z m13 -35 c-3 -6 -11 -8
-17 -5 -6 4 -5 9 3 15 16 10 23 4 14 -10z"/>
<path d="M3737 383 c-4 -3 -7 -11 -7 -17 0 -6 5 -4 10 4 8 13 10 13 11 -2 3
-31 4 -36 10 -42 3 -4 5 5 5 19 -2 27 -18 49 -29 38z"/>
<path d="M3661 364 c0 -11 3 -14 6 -6 3 7 2 16 -1 19 -3 4 -6 -2 -5 -13z"/>
<path d="M4076 362 c-3 -5 1 -9 9 -9 8 0 12 4 9 9 -3 4 -7 8 -9 8 -2 0 -6 -4
-9 -8z"/>
<path d="M3710 340 c0 -5 7 -7 15 -4 8 4 15 8 15 10 0 2 -7 4 -15 4 -8 0 -15
-4 -15 -10z"/>
<path d="M3781 324 c0 -11 3 -14 6 -6 3 7 2 16 -1 19 -3 4 -6 -2 -5 -13z"/>
<path d="M3850 300 c0 -5 5 -10 11 -10 5 0 7 5 4 10 -3 6 -8 10 -11 10 -2 0
-4 -4 -4 -10z"/>
<path d="M3890 296 c0 -3 9 -10 19 -16 15 -7 22 -7 27 2 4 7 4 10 -1 6 -4 -4
-16 -3 -26 3 -11 5 -19 7 -19 5z"/>
<path d="M3790 286 c0 -2 7 -7 16 -10 8 -3 12 -2 9 4 -6 10 -25 14 -25 6z"/>
</g>
</svg>
